<?xml version="1.0" standalone="no"?>
<!DOCTYPE svg PUBLIC "-//W3C//DTD SVG 1.1//EN" "http://www.w3.org/Graphics/SVG/1.1/DTD/svg11.dtd" >
<svg xmlns="http://www.w3.org/2000/svg" xmlns:xlink="http://www.w3.org/1999/xlink" version="1.1">
<metadata>
Created by FontForge 20170731 at Wed Sep  1 10:47:21 2021
 By Aleksey,,,
</metadata>
<defs>
<font id="NotoSansKR-Light-Dingbats" horiz-adv-x="2048" vert-adv-y="2048" >
  <font-face 
    font-family="NotoSansKR-Light-Dingbats"
    font-weight="200"
    font-stretch="normal"
    units-per-em="2048"
    panose-1="2 0 3 3 0 0 0 0 0 0"
    ascent="1638"
    descent="-410"
    bbox="68 -2148 5999 3705"
    underline-thickness="102"
    underline-position="-307"
    unicode-range="U+00A7-FE81"
  />
<missing-glyph horiz-adv-x="748" 
d="M68 0v1365h544v-1365h-544zM136 68h408v1229h-408v-1229z" />
    <glyph glyph-name="uniFE80" unicode="&#x621;" vert-adv-y="4096" arabic-form="isolated" 
d="M985 -1124v3805h78v-3805h-78z" />
    <glyph glyph-name="uniFE81" unicode="&#x622;" vert-adv-y="6144" arabic-form="isolated" 
d="M985 -2148v5853h78v-5853h-78z" />
    <glyph glyph-name=".notdef" horiz-adv-x="748" 
d="M68 0v1365h544v-1365h-544zM136 68h408v1229h-408v-1229z" />
    <glyph glyph-name=".null" horiz-adv-x="0" vert-adv-y="0" 
 />
    <glyph glyph-name="nonmarkingreturn" horiz-adv-x="682" 
 />
    <glyph glyph-name="f" unicode="&#xa7;" 
d="M1407 1479l-47 -90q-49 38 -140 70t-198 32q-115 0 -193.5 -65.5t-78.5 -141.5q0 -42 19 -76t47.5 -57.5t77.5 -44.5t93 -34.5t109 -29.5q188 -47 282.5 -125.5t94.5 -199.5q0 -84 -34.5 -161.5t-90.5 -125.5q32 -28 54.5 -82.5t22.5 -116.5q0 -144 -119.5 -245
t-312.5 -101q-244 0 -362 105l53 86q117 -103 317 -103q146 0 232 71t86 175q0 62 -28.5 104.5t-105 82t-218.5 81.5q-213 63 -303.5 139t-90.5 201q0 58 36.5 128t109.5 132q-36 26 -57 77t-21 98q0 132 111 224.5t299 92.5q112 0 205 -30t151 -70zM786 1038
q-108 -97 -108 -204q0 -35 9 -59.5t38.5 -55t94.5 -61.5t167 -64q228 -74 295 -117q41 41 63.5 97t22.5 114q0 68 -42 118.5t-112.5 81.5t-143.5 52.5t-156 47t-128 50.5z" />
    <glyph glyph-name="p" unicode="&#xb1;" 
d="M1778 1049v-101h-703v-590h-102v590h-703v101h703v589h102v-589h703zM270 150h1512v-103h-1512v103z" />
    <glyph glyph-name="u" unicode="&#xb6;" 
d="M1018 -119v715h-21q-86 0 -171 28.5t-158.5 82t-119.5 142.5t-46 198q-1 76 16 144t61.5 136t114 117t184 79.5t261.5 30.5q178 0 250 -16v-1657h-97v1579h-178v-1579h-96z" />
    <glyph glyph-name="uni02CC" unicode="&#x2cc;" 
d="M145 817h1758v-78h-1758v78z" />
    <glyph glyph-name="breve" unicode="&#x2026;" 
d="M227 778q0 50 32.5 82.5t82.5 32.5t82.5 -32.5t32.5 -82.5q0 -49 -32.5 -81.5t-82.5 -32.5t-82.5 32.5t-32.5 81.5zM909 778q0 50 32.5 82.5t82.5 32.5t82.5 -32.5t32.5 -82.5q0 -49 -32.5 -81.5t-82.5 -32.5t-82.5 32.5t-32.5 81.5zM1591 778q0 50 32.5 82.5t82.5 32.5
t82.5 -32.5t32.5 -82.5q0 -49 -32.5 -81.5t-82.5 -32.5t-82.5 32.5t-32.5 81.5z" />
    <glyph glyph-name="uni0313" unicode="&#x2191;" 
d="M973 -164v1657q-71 -94 -169.5 -195.5t-195.5 -173.5l-55 86q131 101 256.5 241t214.5 280q89 -140 214.5 -280t256.5 -241l-55 -86q-97 72 -195.5 173.5t-169.5 195.5v-1657h-102z" />
    <glyph glyph-name="uni0315" unicode="&#x2193;" 
d="M1075 1720v-1657q71 94 169.5 195.5t195.5 173.5l55 -86q-131 -102 -256.5 -241.5t-214.5 -278.5q-89 139 -214.5 278.5t-256.5 241.5l55 86q97 -72 195.5 -173.5t169.5 -195.5v1657h102z" />
    <glyph glyph-name="uni074F" unicode="&#x3200;" 
d="M494 1212h997v-956h-107v864h-890v92zM330 -135q-133 197 -195.5 420.5t-62.5 492.5q0 533 258 914l67 -25q-235 -351 -235 -889t235 -889zM1718 -135l-67 24q235 351 235 889t-235 889l67 25q258 -381 258 -914q0 -269 -62.5 -492.5t-195.5 -420.5z" />
    <glyph glyph-name="uni0750" unicode="&#x3201;" 
d="M330 1692l67 -25q-235 -351 -235 -889t235 -889l-67 -24q-133 197 -195.5 420.5t-62.5 492.5q0 533 258 914zM698 1282v-848h858v-92h-964v940h106zM1651 1667l67 25q258 -381 258 -914q0 -269 -62.5 -492.5t-195.5 -420.5l-67 24q235 351 235 889t-235 889z" />
    <glyph glyph-name="uni0751" unicode="&#x3202;" 
d="M330 1692l67 -25q-235 -351 -235 -889t235 -889l-67 -24q-133 197 -195.5 420.5t-62.5 492.5q0 533 258 914zM668 1176v-756h870v-92h-977v940h952v-92h-845zM1651 1667l67 25q258 -381 258 -914q0 -269 -62.5 -492.5t-195.5 -420.5l-67 24q235 351 235 889t-235 889z
" />
    <glyph glyph-name="uni0752" unicode="&#x3203;" 
d="M330 1692l67 -25q-235 -351 -235 -889t235 -889l-67 -24q-133 197 -195.5 420.5t-62.5 492.5q0 533 258 914zM647 739v-379h885v-92h-987v559h850v371h-856v90h958v-549h-850zM1651 1667l67 25q258 -381 258 -914q0 -269 -62.5 -492.5t-195.5 -420.5l-67 24
q235 351 235 889t-235 889z" />
    <glyph glyph-name="uni0753" unicode="&#x3204;" 
d="M559 1227h952v-901h-952v901zM1405 1135h-739v-719h739v719zM330 -135q-133 197 -195.5 420.5t-62.5 492.5q0 533 258 914l67 -25q-235 -351 -235 -889t235 -889zM1718 -135l-67 24q235 351 235 889t-235 889l67 25q258 -381 258 -914q0 -269 -62.5 -492.5t-195.5 -420.5
z" />
    <glyph glyph-name="uni0754" unicode="&#x3205;" 
d="M553 1288h106v-383h748v383h109v-1007h-963v1007zM659 809v-430h748v430h-748zM330 -135q-133 197 -195.5 420.5t-62.5 492.5q0 533 258 914l67 -25q-235 -351 -235 -889t235 -889zM1718 -135l-67 24q235 351 235 889t-235 889l67 25q258 -381 258 -914
q0 -269 -62.5 -492.5t-195.5 -420.5z" />
    <glyph glyph-name="uni0755" unicode="&#x3206;" 
d="M330 1692l67 -25q-235 -351 -235 -889t235 -889l-67 -24q-133 197 -195.5 420.5t-62.5 492.5q0 533 258 914zM1096 1313v-289q0 -211 140 -382.5t353 -242.5l-59 -90q-170 63 -299.5 186t-186.5 285q-59 -162 -188.5 -285t-298.5 -186l-59 88q214 73 354.5 244t140.5 383
v289h103zM1651 1667l67 25q258 -381 258 -914q0 -269 -62.5 -492.5t-195.5 -420.5l-67 24q235 351 235 889t-235 889z" />
    <glyph glyph-name="uni0756" unicode="&#x3207;" 
d="M1032 1243q221 0 363.5 -128.5t142.5 -330.5q0 -201 -142.5 -328.5t-363.5 -127.5q-220 0 -362 127.5t-142 328.5q0 202 142.5 330.5t361.5 128.5zM1032 1151q-174 0 -289.5 -105t-115.5 -262q0 -156 115.5 -260t289.5 -104q175 0 291.5 104.5t116.5 259.5
q0 157 -116.5 262t-291.5 105zM330 -135q-133 197 -195.5 420.5t-62.5 492.5q0 533 258 914l67 -25q-235 -351 -235 -889t235 -889zM1718 -135l-67 24q235 351 235 889t-235 889l67 25q258 -381 258 -914q0 -269 -62.5 -492.5t-195.5 -420.5z" />
    <glyph glyph-name="uni0757" unicode="&#x3208;" 
d="M330 1692l67 -25q-235 -351 -235 -889t235 -889l-67 -24q-133 197 -195.5 420.5t-62.5 492.5q0 533 258 914zM1081 1135v-136q0 -198 149 -354t367 -221l-55 -88q-176 58 -312.5 172t-197.5 268q-61 -154 -195.5 -268.5t-308.5 -171.5l-53 88q215 66 360.5 222.5
t145.5 352.5v136h-453v92h1008v-92h-455zM1651 1667l67 25q258 -381 258 -914q0 -269 -62.5 -492.5t-195.5 -420.5l-67 24q235 351 235 889t-235 889z" />
    <glyph glyph-name="uni0758" unicode="&#x3209;" 
d="M330 1692l67 -25q-235 -351 -235 -889t235 -889l-67 -24q-133 197 -195.5 420.5t-62.5 492.5q0 533 258 914zM1083 991v-108q0 -169 137.5 -305.5t342.5 -192.5l-52 -86q-168 51 -296.5 153.5t-184.5 239.5q-56 -136 -185 -239t-298 -154l-53 86q207 56 345 192.5
t138 305.5v108h-451v92h451v271h106v-271h451v-92h-451zM1651 1667l67 25q258 -381 258 -914q0 -269 -62.5 -492.5t-195.5 -420.5l-67 24q235 351 235 889t-235 889z" />
    <glyph glyph-name="uni0759" unicode="&#x320a;" 
d="M330 1692l67 -25q-235 -351 -235 -889t235 -889l-67 -24q-133 197 -195.5 420.5t-62.5 492.5q0 533 258 914zM543 1155v90h964v-964h-108v464l-889 -57l-18 103l907 43v321h-856zM1651 1667l67 25q258 -381 258 -914q0 -269 -62.5 -492.5t-195.5 -420.5l-67 24
q235 351 235 889t-235 889z" />
    <glyph glyph-name="uni075A" unicode="&#x320b;" 
d="M330 1692l67 -25q-235 -351 -235 -889t235 -889l-67 -24q-133 197 -195.5 420.5t-62.5 492.5q0 533 258 914zM662 739v-331h874v-91h-977v930h944v-92h-841v-324h845v-92h-845zM1651 1667l67 25q258 -381 258 -914q0 -269 -62.5 -492.5t-195.5 -420.5l-67 24
q235 351 235 889t-235 889z" />
    <glyph glyph-name="uni075B" unicode="&#x320c;" 
d="M330 1692l67 -25q-235 -351 -235 -889t235 -889l-67 -24q-133 197 -195.5 420.5t-62.5 492.5q0 533 258 914zM860 1112v-643h383v643h-383zM1350 1112v-643h260v-92h-1151v92h293v643h-244v92h1055v-92h-213zM1651 1667l67 25q258 -381 258 -914q0 -269 -62.5 -492.5
t-195.5 -420.5l-67 24q235 351 235 889t-235 889z" />
    <glyph glyph-name="uni075C" unicode="&#x320d;" 
d="M330 1692l67 -25q-235 -351 -235 -889t235 -889l-67 -24q-133 197 -195.5 420.5t-62.5 492.5q0 533 258 914zM1022 238q136 0 227.5 78.5t91.5 193.5t-91.5 193.5t-227.5 78.5q-135 0 -226 -79t-91 -193t91 -193t226 -79zM1022 872q184 0 305 -102t121 -260
q0 -159 -121 -262t-305 -103q-182 0 -303 103t-121 262q0 157 121 259.5t303 102.5zM1073 1370v-260h529v-94h-1158v94h523v260h106zM1651 1667l67 25q258 -381 258 -914q0 -269 -62.5 -492.5t-195.5 -420.5l-67 24q235 351 235 889t-235 889z" />
    <glyph glyph-name="uni075D" unicode="&#x320e;" 
d="M330 1692l65 -25q-235 -347 -235 -889t235 -889l-65 -24q-133 197 -195.5 420.5t-62.5 492.5q0 533 258 914zM412 1395h678q0 -340 -169 -642t-495 -511l-70 80q283 178 444 432t181 546h-569v95zM1804 807h-299v-864h-110v1665h110v-707h299v-94zM1653 1667l65 25
q258 -381 258 -914q0 -269 -62.5 -492.5t-195.5 -420.5l-65 24q235 347 235 889t-235 889z" />
    <glyph glyph-name="uni075E" unicode="&#x320f;" 
d="M330 1692l65 -25q-235 -347 -235 -889t235 -889l-65 -24q-133 197 -195.5 420.5t-62.5 492.5q0 533 258 914zM508 473h14q409 0 750 74l16 -98q-377 -76 -766 -76h-123v1067h109v-967zM1810 825h-301v-882h-110v1665h110v-688h301v-95zM1653 1667l65 25
q258 -381 258 -914q0 -269 -62.5 -492.5t-195.5 -420.5l-65 24q235 347 235 889t-235 889z" />
    <glyph glyph-name="uni075F" unicode="&#x3210;" 
d="M330 1692l65 -25q-235 -347 -235 -889t235 -889l-65 -24q-133 197 -195.5 420.5t-62.5 492.5q0 533 258 914zM522 426h13q230 0 391 11.5t331 43.5l15 -96q-175 -35 -335.5 -46t-401.5 -11h-121v1095h733v-94h-625v-903zM1808 825h-278v-880h-111v1665h111v-690h278v-95z
M1653 1667l65 25q258 -381 258 -914q0 -269 -62.5 -492.5t-195.5 -420.5l-65 24q235 347 235 889t-235 889z" />
    <glyph glyph-name="uni0760" unicode="&#x3211;" 
d="M330 1692l65 -25q-235 -347 -235 -889t235 -889l-65 -24q-133 197 -195.5 420.5t-62.5 492.5q0 533 258 914zM530 432h11q233 0 389 11t325 46l11 -100q-175 -32 -336 -43.5t-389 -11.5h-117v612h551v385h-557v92h665v-571h-553v-420zM1786 823h-256v-880h-111v1665h111
v-690h256v-95zM1653 1667l65 25q258 -381 258 -914q0 -269 -62.5 -492.5t-195.5 -420.5l-65 24q235 347 235 889t-235 889z" />
    <glyph glyph-name="uni0761" unicode="&#x3212;" 
d="M330 1692l65 -25q-235 -347 -235 -889t235 -889l-65 -24q-133 197 -195.5 420.5t-62.5 492.5q0 533 258 914zM508 1313v-852h453v852h-453zM397 365v1044h674v-1044h-674zM1804 815h-299v-872h-110v1665h110v-699h299v-94zM1653 1667l65 25q258 -381 258 -914
q0 -269 -62.5 -492.5t-195.5 -420.5l-65 24q235 347 235 889t-235 889z" />
    <glyph glyph-name="uni0762" unicode="&#x3213;" 
d="M330 1692l65 -25q-235 -347 -235 -889t235 -889l-65 -24q-133 197 -195.5 420.5t-62.5 492.5q0 533 258 914zM1036 410v501h-485v-501h485zM1036 1010v434h105v-1133h-697v1133h107v-434h485zM1806 809h-280v-866h-111v1665h111v-703h280v-96zM1653 1667l65 25
q258 -381 258 -914q0 -269 -62.5 -492.5t-195.5 -420.5l-65 24q235 347 235 889t-235 889z" />
    <glyph glyph-name="uni0763" unicode="&#x3214;" 
d="M330 1692l65 -25q-235 -347 -235 -889t235 -889l-65 -24q-133 197 -195.5 420.5t-62.5 492.5q0 533 258 914zM829 1444v-344q0 -242 112.5 -443t301.5 -295l-74 -83q-142 78 -245 216.5t-150 317.5q-47 -179 -150 -317.5t-245 -216.5l-74 83q189 94 301.5 295t112.5 443
v344h110zM1792 823h-283v-880h-108v1665h108v-690h283v-95zM1653 1667l65 25q258 -381 258 -914q0 -269 -62.5 -492.5t-195.5 -420.5l-65 24q235 347 235 889t-235 889z" />
    <glyph glyph-name="uni0764" unicode="&#x3215;" 
d="M330 1692l65 -25q-235 -347 -235 -889t235 -889l-65 -24q-133 197 -195.5 420.5t-62.5 492.5q0 533 258 914zM739 426q122 0 196.5 126.5t74.5 328.5t-74.5 329t-196.5 127q-121 0 -194.5 -127t-73.5 -329t73.5 -328.5t194.5 -126.5zM739 1434q172 0 274.5 -150
t102.5 -403t-102.5 -403t-274.5 -150t-273 149.5t-101 403.5t101 403.5t273 149.5zM1798 807h-266v-864h-109v1665h109v-707h266v-94zM1653 1667l65 25q258 -381 258 -914q0 -269 -62.5 -492.5t-195.5 -420.5l-65 24q235 347 235 889t-235 889z" />
    <glyph glyph-name="uni0765" unicode="&#x3216;" 
d="M330 1692l65 -25q-235 -347 -235 -889t235 -889l-65 -24q-133 197 -195.5 420.5t-62.5 492.5q0 533 258 914zM850 1313v-226q0 -246 102 -457.5t281 -310.5l-72 -81q-136 82 -230 226.5t-136 328.5q-42 -184 -136.5 -328.5t-230.5 -226.5l-72 81q179 99 281 310.5
t102 457.5v226h-327v96h768v-96h-330zM1806 815h-280v-872h-111v1665h111v-699h280v-94zM1653 1667l65 25q258 -381 258 -914q0 -269 -62.5 -492.5t-195.5 -420.5l-65 24q235 347 235 889t-235 889z" />
    <glyph glyph-name="uni0766" unicode="&#x3217;" 
d="M330 1692l65 -25q-235 -347 -235 -889t235 -889l-65 -24q-133 197 -195.5 420.5t-62.5 492.5q0 533 258 914zM838 1122v-106q0 -214 114.5 -394t298.5 -262l-65 -86q-145 69 -250 196t-152 290q-50 -163 -154.5 -290t-246.5 -196l-68 86q186 82 301 262t115 394v106h-369
v95h367v294h109v-294h366v-95h-366zM1806 788h-280v-845h-111v1665h111v-723h280v-97zM1653 1667l65 25q258 -381 258 -914q0 -269 -62.5 -492.5t-195.5 -420.5l-65 24q235 347 235 889t-235 889z" />
    <glyph glyph-name="uni0767" unicode="&#x3218;" 
d="M330 1692l65 -25q-235 -347 -235 -889t235 -889l-65 -24q-133 197 -195.5 420.5t-62.5 492.5q0 533 258 914zM440 1399h672q0 -168 -35 -326.5t-108.5 -310.5t-196 -290t-287.5 -249l-79 76q374 241 518 623l-510 -52l-25 99l565 43q43 141 52 293h-566v94zM1788 803
h-283v-860h-110v1665h110v-711h283v-94zM1653 1667l65 25q258 -381 258 -914q0 -269 -62.5 -492.5t-195.5 -420.5l-65 24q235 347 235 889t-235 889z" />
    <glyph glyph-name="uni0768" unicode="&#x3219;" 
d="M330 1692l65 -25q-235 -347 -235 -889t235 -889l-65 -24q-133 197 -195.5 420.5t-62.5 492.5q0 533 258 914zM524 430h11q235 0 393.5 11t326.5 44l15 -98q-178 -34 -339.5 -45.5t-395.5 -11.5h-119v1081h725v-98h-617v-373h576v-96h-576v-414zM1815 805h-283v-862h-111
v1665h111v-709h283v-94zM1653 1667l65 25q258 -381 258 -914q0 -269 -62.5 -492.5t-195.5 -420.5l-65 24q235 347 235 889t-235 889z" />
    <glyph glyph-name="uni0769" unicode="&#x321a;" 
d="M330 1692l65 -25q-235 -347 -235 -889t235 -889l-65 -24q-133 197 -195.5 420.5t-62.5 492.5q0 533 258 914zM651 1296v-860q125 3 299 13v847h-299zM1057 1296v-841q180 12 264 22l6 -84q-393 -57 -1012 -57l-14 96q156 0 244 2v862h-187v95h875v-95h-176zM1819 807
h-265v-864h-110v1665h110v-707h265v-94zM1653 1667l65 25q258 -381 258 -914q0 -269 -62.5 -492.5t-195.5 -420.5l-65 24q235 347 235 889t-235 889z" />
    <glyph glyph-name="uni076A" unicode="&#x321b;" 
d="M330 1692l65 -25q-235 -347 -235 -889t235 -889l-65 -24q-133 197 -195.5 420.5t-62.5 492.5q0 533 258 914zM778 377q124 0 206.5 80t82.5 198t-82.5 197.5t-206.5 79.5t-206.5 -79.5t-82.5 -197.5t82.5 -198t206.5 -80zM778 1018q170 0 280.5 -101.5t110.5 -261.5
t-110.5 -262t-280.5 -102t-279.5 102t-109.5 262t109.5 261.5t279.5 101.5zM840 1554v-286h417v-94h-954v94h426v286h111zM1800 809h-254v-866h-110v1665h110v-707h254v-92zM1653 1667l65 25q258 -381 258 -914q0 -269 -62.5 -492.5t-195.5 -420.5l-65 24q235 347 235 889
t-235 889z" />
    <glyph glyph-name="uni076B" unicode="&#x321c;" 
d="M985 1384v15h-516v96h1145v-96h-514v-15q0 -80 59.5 -157.5t152.5 -135t200 -99t208 -58.5l-43 -88q-128 24 -251.5 76t-229 133.5t-154.5 175.5q-73 -140 -253.5 -243.5t-380.5 -141.5l-43 88q101 17 208 58.5t200 99t152.5 135t59.5 157.5zM330 1692l65 -25
q-235 -347 -235 -889t235 -889l-65 -24q-133 197 -195.5 420.5t-62.5 492.5q0 533 258 914zM1763 606h-665v-665h-111v665h-668v96h1444v-96zM1653 1667l65 25q258 -381 258 -914q0 -269 -62.5 -492.5t-195.5 -420.5l-65 24q235 347 235 889t-235 889z" />
    <glyph glyph-name="uni07C2" unicode="&#x3260;" 
d="M541 1147h899v-866h-107v774h-792v92zM1970 778q0 -192 -75 -367.5t-201.5 -302t-302 -201.5t-367.5 -75t-367.5 75t-302 201.5t-201.5 302t-75 367.5t75 367.5t201.5 302t302 201.5t367.5 75t367.5 -75t302 -201.5t201.5 -302t75 -367.5zM1024 1667q-242 0 -446.5 -119
t-323.5 -323.5t-119 -446.5t119 -446.5t323.5 -323.5t446.5 -119t446.5 119t323.5 323.5t119 446.5t-119 446.5t-323.5 323.5t-446.5 119z" />
    <glyph glyph-name="uni07C3" unicode="&#x3261;" 
d="M750 1233v-752h766v-90h-875v842h109zM1024 -111q242 0 446.5 119t323.5 323.5t119 446.5t-119 446.5t-323.5 323.5t-446.5 119t-446.5 -119t-323.5 -323.5t-119 -446.5t119 -446.5t323.5 -323.5t446.5 -119zM1024 1724q192 0 367.5 -75t302 -201.5t201.5 -302t75 -367.5
t-75 -367.5t-201.5 -302t-302 -201.5t-367.5 -75t-367.5 75t-302 201.5t-201.5 302t-75 367.5t75 367.5t201.5 302t302 201.5t367.5 75z" />
    <glyph glyph-name="uni07C4" unicode="&#x3262;" 
d="M698 1090v-666h775v-92h-881v850h862v-92h-756zM1024 -111q242 0 446.5 119t323.5 323.5t119 446.5t-119 446.5t-323.5 323.5t-446.5 119t-446.5 -119t-323.5 -323.5t-119 -446.5t119 -446.5t323.5 -323.5t446.5 -119zM1024 1724q192 0 367.5 -75t302 -201.5t201.5 -302
t75 -367.5t-75 -367.5t-201.5 -302t-302 -201.5t-367.5 -75t-367.5 75t-302 201.5t-201.5 302t-75 367.5t75 367.5t201.5 302t302 201.5t367.5 75z" />
    <glyph glyph-name="uni07C5" unicode="&#x3263;" 
d="M694 733v-325h813v-95h-915v510h762v330h-768v86h870v-506h-762zM1024 -111q242 0 446.5 119t323.5 323.5t119 446.5t-119 446.5t-323.5 323.5t-446.5 119t-446.5 -119t-323.5 -323.5t-119 -446.5t119 -446.5t323.5 -323.5t446.5 -119zM1024 1724q192 0 367.5 -75
t302 -201.5t201.5 -302t75 -367.5t-75 -367.5t-201.5 -302t-302 -201.5t-367.5 -75t-367.5 75t-302 201.5t-201.5 302t-75 367.5t75 367.5t201.5 302t302 201.5t367.5 75z" />
    <glyph glyph-name="uni07C6" unicode="&#x3264;" 
d="M588 1143h864v-813h-864v813zM1346 1051h-650v-629h650v629zM1970 778q0 -192 -75 -367.5t-201.5 -302t-302 -201.5t-367.5 -75t-367.5 75t-302 201.5t-201.5 302t-75 367.5t75 367.5t201.5 302t302 201.5t367.5 75t367.5 -75t302 -201.5t201.5 -302t75 -367.5z
M1024 1667q-242 0 -446.5 -119t-323.5 -323.5t-119 -446.5t119 -446.5t323.5 -323.5t446.5 -119t446.5 119t323.5 323.5t119 446.5t-119 446.5t-323.5 323.5t-446.5 119z" />
    <glyph glyph-name="uni07C7" unicode="&#x3265;" 
d="M580 1200h106v-350h660v350h106v-911h-872v911zM686 760v-381h660v381h-660zM1970 778q0 -192 -75 -367.5t-201.5 -302t-302 -201.5t-367.5 -75t-367.5 75t-302 201.5t-201.5 302t-75 367.5t75 367.5t201.5 302t302 201.5t367.5 75t367.5 -75t302 -201.5t201.5 -302
t75 -367.5zM1024 1667q-242 0 -446.5 -119t-323.5 -323.5t-119 -446.5t119 -446.5t323.5 -323.5t446.5 -119t446.5 119t323.5 323.5t119 446.5t-119 446.5t-323.5 323.5t-446.5 119z" />
    <glyph glyph-name="uni07C8" unicode="&#x3266;" 
d="M1071 1221v-277q0 -161 136 -308.5t333 -211.5l-55 -84q-158 56 -281.5 163.5t-181.5 241.5q-55 -136 -175 -244.5t-276 -164.5l-57 86q195 64 327 212.5t132 309.5v277h98zM1024 -111q242 0 446.5 119t323.5 323.5t119 446.5t-119 446.5t-323.5 323.5t-446.5 119
t-446.5 -119t-323.5 -323.5t-119 -446.5t119 -446.5t323.5 -323.5t446.5 -119zM1024 1724q192 0 367.5 -75t302 -201.5t201.5 -302t75 -367.5t-75 -367.5t-201.5 -302t-302 -201.5t-367.5 -75t-367.5 75t-302 201.5t-201.5 302t-75 367.5t75 367.5t201.5 302t302 201.5
t367.5 75z" />
    <glyph glyph-name="uni07C9" unicode="&#x3267;" 
d="M1020 1157q201 0 329 -114.5t128 -297.5q0 -182 -127.5 -296.5t-329.5 -114.5q-200 0 -328.5 114.5t-128.5 296.5t128.5 297t328.5 115zM1020 1077q-156 0 -259.5 -96t-103.5 -236t103.5 -234.5t259.5 -94.5t259 94.5t103 234.5t-103 236t-259 96zM1970 778
q0 -192 -75 -367.5t-201.5 -302t-302 -201.5t-367.5 -75t-367.5 75t-302 201.5t-201.5 302t-75 367.5t75 367.5t201.5 302t302 201.5t367.5 75t367.5 -75t302 -201.5t201.5 -302t75 -367.5zM1024 1667q-242 0 -446.5 -119t-323.5 -323.5t-119 -446.5t119 -446.5
t323.5 -323.5t446.5 -119t446.5 119t323.5 323.5t119 446.5t-119 446.5t-323.5 323.5t-446.5 119z" />
    <glyph glyph-name="uni07CA" unicode="&#x3268;" 
d="M1071 1053v-107q0 -161 130.5 -294.5t330.5 -190.5l-55 -84q-159 50 -279 147t-176 226q-56 -129 -176.5 -226t-280.5 -147l-53 84q200 57 330.5 190.5t130.5 294.5v107h-404v92h910v-92h-408zM1024 -111q242 0 446.5 119t323.5 323.5t119 446.5t-119 446.5t-323.5 323.5
t-446.5 119t-446.5 -119t-323.5 -323.5t-119 -446.5t119 -446.5t323.5 -323.5t446.5 -119zM1024 1724q192 0 367.5 -75t302 -201.5t201.5 -302t75 -367.5t-75 -367.5t-201.5 -302t-302 -201.5t-367.5 -75t-367.5 75t-302 201.5t-201.5 302t-75 367.5t75 367.5t201.5 302
t302 201.5t367.5 75z" />
    <glyph glyph-name="uni07CB" unicode="&#x3269;" 
d="M1079 938v-61q0 -144 121.5 -268t310.5 -175l-51 -86q-154 47 -267.5 139.5t-166.5 212.5q-53 -120 -166.5 -212.5t-267.5 -139.5l-51 86q189 51 311.5 175t122.5 268v61h-402v92h400v254h106v-254h406v-92h-406zM1024 -111q242 0 446.5 119t323.5 323.5t119 446.5
t-119 446.5t-323.5 323.5t-446.5 119t-446.5 -119t-323.5 -323.5t-119 -446.5t119 -446.5t323.5 -323.5t446.5 -119zM1024 1724q192 0 367.5 -75t302 -201.5t201.5 -302t75 -367.5t-75 -367.5t-201.5 -302t-302 -201.5t-367.5 -75t-367.5 75t-302 201.5t-201.5 302
t-75 367.5t75 367.5t201.5 302t302 201.5t367.5 75z" />
    <glyph glyph-name="uni07CC" unicode="&#x326a;" 
d="M588 1069v88h872v-874h-102v415l-799 -51l-18 103l817 38v281h-770zM1024 -111q242 0 446.5 119t323.5 323.5t119 446.5t-119 446.5t-323.5 323.5t-446.5 119t-446.5 -119t-323.5 -323.5t-119 -446.5t119 -446.5t323.5 -323.5t446.5 -119zM1024 1724q192 0 367.5 -75
t302 -201.5t201.5 -302t75 -367.5t-75 -367.5t-201.5 -302t-302 -201.5t-367.5 -75t-367.5 75t-302 201.5t-201.5 302t-75 367.5t75 367.5t201.5 302t302 201.5t367.5 75z" />
    <glyph glyph-name="uni07CD" unicode="&#x326b;" 
d="M694 694v-280h779v-92h-885v841h866v-90h-760v-287h756v-92h-756zM1024 -111q242 0 446.5 119t323.5 323.5t119 446.5t-119 446.5t-323.5 323.5t-446.5 119t-446.5 -119t-323.5 -323.5t-119 -446.5t119 -446.5t323.5 -323.5t446.5 -119zM1024 1724q192 0 367.5 -75
t302 -201.5t201.5 -302t75 -367.5t-75 -367.5t-201.5 -302t-302 -201.5t-367.5 -75t-367.5 75t-302 201.5t-201.5 302t-75 367.5t75 367.5t201.5 302t302 201.5t367.5 75z" />
    <glyph glyph-name="uni07CE" unicode="&#x326c;" 
d="M840 1030v-565h360v565h-360zM1303 1030v-565h237v-92h-1044v92h241v565h-194v92h950v-92h-190zM1024 -111q242 0 446.5 119t323.5 323.5t119 446.5t-119 446.5t-323.5 323.5t-446.5 119t-446.5 -119t-323.5 -323.5t-119 -446.5t119 -446.5t323.5 -323.5t446.5 -119z
M1024 1724q192 0 367.5 -75t302 -201.5t201.5 -302t75 -367.5t-75 -367.5t-201.5 -302t-302 -201.5t-367.5 -75t-367.5 75t-302 201.5t-201.5 302t-75 367.5t75 367.5t201.5 302t302 201.5t367.5 75z" />
    <glyph glyph-name="uni07CF" unicode="&#x326d;" 
d="M1024 285q117 0 195.5 69.5t78.5 171.5t-79 173t-195 71q-117 0 -195.5 -71t-78.5 -173t78 -171.5t196 -69.5zM1024 854q159 0 267 -93t108 -235q0 -141 -108 -234t-267 -93q-161 0 -268 92.5t-107 234.5t107.5 235t267.5 93zM1075 1292v-225h471v-90h-1052v90h475v225
h106zM1024 -111q242 0 446.5 119t323.5 323.5t119 446.5t-119 446.5t-323.5 323.5t-446.5 119t-446.5 -119t-323.5 -323.5t-119 -446.5t119 -446.5t323.5 -323.5t446.5 -119zM1024 1724q192 0 367.5 -75t302 -201.5t201.5 -302t75 -367.5t-75 -367.5t-201.5 -302
t-302 -201.5t-367.5 -75t-367.5 75t-302 201.5t-201.5 302t-75 367.5t75 367.5t201.5 302t302 201.5t367.5 75z" />
    <glyph glyph-name="uni07D0" unicode="&#x326e;" 
d="M428 1311h602q0 -307 -159 -569.5t-451 -446.5l-70 80q253 154 402.5 370.5t169.5 468.5h-494v97zM1448 901h274v-94h-274v-752h-111v1465h111v-619zM1024 -111q242 0 446.5 119t323.5 323.5t119 446.5t-119 446.5t-323.5 323.5t-446.5 119t-446.5 -119t-323.5 -323.5
t-119 -446.5t119 -446.5t323.5 -323.5t446.5 -119zM1024 1724q192 0 367.5 -75t302 -201.5t201.5 -302t75 -367.5t-75 -367.5t-201.5 -302t-302 -201.5t-367.5 -75t-367.5 75t-302 201.5t-201.5 302t-75 367.5t75 367.5t201.5 302t302 201.5t367.5 75z" />
    <glyph glyph-name="uni07D1" unicode="&#x326f;" 
d="M504 473h6q363 0 684 70l16 -99q-329 -69 -700 -69h-115v925h109v-827zM1468 901h261v-94h-261v-752h-110v1465h110v-619zM1024 -111q242 0 446.5 119t323.5 323.5t119 446.5t-119 446.5t-323.5 323.5t-446.5 119t-446.5 -119t-323.5 -323.5t-119 -446.5t119 -446.5
t323.5 -323.5t446.5 -119zM1024 1724q192 0 367.5 -75t302 -201.5t201.5 -302t75 -367.5t-75 -367.5t-201.5 -302t-302 -201.5t-367.5 -75t-367.5 75t-302 201.5t-201.5 302t-75 367.5t75 367.5t201.5 302t302 201.5t367.5 75z" />
    <glyph glyph-name="uni07D2" unicode="&#x3270;" 
d="M504 485h6q226 0 376.5 10.5t309.5 43.5l14 -99q-169 -32 -324.5 -43.5t-375.5 -11.5h-115v920h692v-95h-583v-725zM1460 850h262v-94h-262v-701h-108v1465h108v-670zM1024 -111q242 0 446.5 119t323.5 323.5t119 446.5t-119 446.5t-323.5 323.5t-446.5 119t-446.5 -119
t-323.5 -323.5t-119 -446.5t119 -446.5t323.5 -323.5t446.5 -119zM1024 1724q192 0 367.5 -75t302 -201.5t201.5 -302t75 -367.5t-75 -367.5t-201.5 -302t-302 -201.5t-367.5 -75t-367.5 75t-302 201.5t-201.5 302t-75 367.5t75 367.5t201.5 302t302 201.5t367.5 75z" />
    <glyph glyph-name="uni07D3" unicode="&#x3271;" 
d="M489 463h3q216 0 364 10.5t307 42.5l11 -96q-166 -31 -318 -42t-364 -11h-109v555h535v317h-541v90h649v-500h-537v-366zM1450 901h272v-94h-272v-752h-109v1465h109v-619zM1024 -111q242 0 446.5 119t323.5 323.5t119 446.5t-119 446.5t-323.5 323.5t-446.5 119
t-446.5 -119t-323.5 -323.5t-119 -446.5t119 -446.5t323.5 -323.5t446.5 -119zM1024 1724q192 0 367.5 -75t302 -201.5t201.5 -302t75 -367.5t-75 -367.5t-201.5 -302t-302 -201.5t-367.5 -75t-367.5 75t-302 201.5t-201.5 302t-75 367.5t75 367.5t201.5 302t302 201.5
t367.5 75z" />
    <glyph glyph-name="uni07D4" unicode="&#x3272;" 
d="M506 1237v-743h426v743h-426zM397 399v932h643v-932h-643zM1450 901h274v-94h-274v-752h-109v1465h109v-619zM1024 -111q242 0 446.5 119t323.5 323.5t119 446.5t-119 446.5t-323.5 323.5t-446.5 119t-446.5 -119t-323.5 -323.5t-119 -446.5t119 -446.5t323.5 -323.5
t446.5 -119zM1024 1724q192 0 367.5 -75t302 -201.5t201.5 -302t75 -367.5t-75 -367.5t-201.5 -302t-302 -201.5t-367.5 -75t-367.5 75t-302 201.5t-201.5 302t-75 367.5t75 367.5t201.5 302t302 201.5t367.5 75z" />
    <glyph glyph-name="uni07D5" unicode="&#x3273;" 
d="M948 446v439h-444v-439h444zM948 983v381h107v-1016h-658v1016h107v-381h444zM1458 901h264v-94h-264v-752h-110v1465h110v-619zM1024 -111q242 0 446.5 119t323.5 323.5t119 446.5t-119 446.5t-323.5 323.5t-446.5 119t-446.5 -119t-323.5 -323.5t-119 -446.5
t119 -446.5t323.5 -323.5t446.5 -119zM1024 1724q192 0 367.5 -75t302 -201.5t201.5 -302t75 -367.5t-75 -367.5t-201.5 -302t-302 -201.5t-367.5 -75t-367.5 75t-302 201.5t-201.5 302t-75 367.5t75 367.5t201.5 302t302 201.5t367.5 75z" />
    <glyph glyph-name="uni07D6" unicode="&#x3274;" 
d="M782 1397v-205q0 -156 46.5 -300.5t136.5 -260t211 -178.5l-72 -82q-136 77 -233 214.5t-142 311.5q-45 -174 -142 -311.5t-233 -214.5l-73 82q182 95 288.5 298.5t106.5 440.5v205h106zM1448 901h274v-94h-274v-752h-111v1465h111v-619zM1024 -111q242 0 446.5 119
t323.5 323.5t119 446.5t-119 446.5t-323.5 323.5t-446.5 119t-446.5 -119t-323.5 -323.5t-119 -446.5t119 -446.5t323.5 -323.5t446.5 -119zM1024 1724q192 0 367.5 -75t302 -201.5t201.5 -302t75 -367.5t-75 -367.5t-201.5 -302t-302 -201.5t-367.5 -75t-367.5 75
t-302 201.5t-201.5 302t-75 367.5t75 367.5t201.5 302t302 201.5t367.5 75z" />
    <glyph glyph-name="uni07D7" unicode="&#x3275;" 
d="M715 451q112 0 177.5 113.5t65.5 297.5q0 183 -65.5 297.5t-177.5 114.5q-111 0 -176.5 -114.5t-65.5 -297.5q0 -184 65.5 -297.5t176.5 -113.5zM715 1368q160 0 254 -137t94 -369q0 -233 -94 -369.5t-254 -136.5q-159 0 -252.5 136.5t-93.5 369.5q0 232 94 369t252 137z
M1432 905h272v-96h-272v-754h-111v1465h111v-615zM1024 -111q242 0 446.5 119t323.5 323.5t119 446.5t-119 446.5t-323.5 323.5t-446.5 119t-446.5 -119t-323.5 -323.5t-119 -446.5t119 -446.5t323.5 -323.5t446.5 -119zM1024 1724q192 0 367.5 -75t302 -201.5t201.5 -302
t75 -367.5t-75 -367.5t-201.5 -302t-302 -201.5t-367.5 -75t-367.5 75t-302 201.5t-201.5 302t-75 367.5t75 367.5t201.5 302t302 201.5t367.5 75z" />
    <glyph glyph-name="uni07D8" unicode="&#x3276;" 
d="M821 1233v-178q0 -117 44.5 -230t130.5 -205t200 -141l-63 -80q-132 60 -226.5 174t-136.5 256q-44 -143 -138 -256.5t-226 -173.5l-64 82q171 72 273 233.5t102 340.5v178h-326v96h758v-96h-328zM1452 901h270v-94h-270v-752h-109v1465h109v-619zM1024 -111
q242 0 446.5 119t323.5 323.5t119 446.5t-119 446.5t-323.5 323.5t-446.5 119t-446.5 -119t-323.5 -323.5t-119 -446.5t119 -446.5t323.5 -323.5t446.5 -119zM1024 1724q192 0 367.5 -75t302 -201.5t201.5 -302t75 -367.5t-75 -367.5t-201.5 -302t-302 -201.5t-367.5 -75
t-367.5 75t-302 201.5t-201.5 302t-75 367.5t75 367.5t201.5 302t302 201.5t367.5 75z" />
    <glyph glyph-name="uni07D9" unicode="&#x3277;" 
d="M811 1071v-110q0 -159 101.5 -301t269.5 -207l-62 -86q-132 54 -225.5 155t-138.5 230q-44 -128 -138 -229t-227 -156l-59 86q169 65 271 207.5t102 300.5v110h-324v94h321v242h109v-242h305v-94h-305zM1452 901h270v-94h-270v-752h-111v1465h111v-619zM1024 -111
q242 0 446.5 119t323.5 323.5t119 446.5t-119 446.5t-323.5 323.5t-446.5 119t-446.5 -119t-323.5 -323.5t-119 -446.5t119 -446.5t323.5 -323.5t446.5 -119zM1024 1724q192 0 367.5 -75t302 -201.5t201.5 -302t75 -367.5t-75 -367.5t-201.5 -302t-302 -201.5t-367.5 -75
t-367.5 75t-302 201.5t-201.5 302t-75 367.5t75 367.5t201.5 302t302 201.5t367.5 75z" />
    <glyph glyph-name="uni07DA" unicode="&#x3278;" 
d="M444 1315h631q0 -327 -152.5 -591.5t-476.5 -442.5l-75 73q362 189 508 506l-506 -51l-25 98l565 43q45 123 54 269h-523v96zM1450 864h272v-96h-272v-713h-109v1465h109v-656zM1024 -111q242 0 446.5 119t323.5 323.5t119 446.5t-119 446.5t-323.5 323.5t-446.5 119
t-446.5 -119t-323.5 -323.5t-119 -446.5t119 -446.5t323.5 -323.5t446.5 -119zM1024 1724q192 0 367.5 -75t302 -201.5t201.5 -302t75 -367.5t-75 -367.5t-201.5 -302t-302 -201.5t-367.5 -75t-367.5 75t-302 201.5t-201.5 302t-75 367.5t75 367.5t201.5 302t302 201.5
t367.5 75z" />
    <glyph glyph-name="uni07DB" unicode="&#x3279;" 
d="M487 489h5q224 0 378.5 11.5t319.5 44.5l12 -99q-172 -32 -329 -43.5t-381 -11.5h-115v971h688v-98h-578v-326h529v-94h-529v-355zM1450 901h272v-94h-272v-752h-109v1465h109v-619zM1024 -111q242 0 446.5 119t323.5 323.5t119 446.5t-119 446.5t-323.5 323.5
t-446.5 119t-446.5 -119t-323.5 -323.5t-119 -446.5t119 -446.5t323.5 -323.5t446.5 -119zM1024 1724q192 0 367.5 -75t302 -201.5t201.5 -302t75 -367.5t-75 -367.5t-201.5 -302t-302 -201.5t-367.5 -75t-367.5 75t-302 201.5t-201.5 302t-75 367.5t75 367.5t201.5 302
t302 201.5t367.5 75z" />
    <glyph glyph-name="uni07DC" unicode="&#x327a;" 
d="M625 1212v-731q156 4 264 11v720h-264zM991 1212v-716q110 8 246 22l4 -82q-345 -55 -944 -55l-14 96q151 0 239 2v733h-178v95h821v-95h-174zM1470 901h261v-94h-261v-752h-110v1465h110v-619zM1024 -111q242 0 446.5 119t323.5 323.5t119 446.5t-119 446.5
t-323.5 323.5t-446.5 119t-446.5 -119t-323.5 -323.5t-119 -446.5t119 -446.5t323.5 -323.5t446.5 -119zM1024 1724q192 0 367.5 -75t302 -201.5t201.5 -302t75 -367.5t-75 -367.5t-201.5 -302t-302 -201.5t-367.5 -75t-367.5 75t-302 201.5t-201.5 302t-75 367.5t75 367.5
t201.5 302t302 201.5t367.5 75z" />
    <glyph glyph-name="uni07DD" unicode="&#x327b;" 
d="M768 432q104 0 175 65t71 162t-71 162.5t-175 65.5q-105 0 -175.5 -65.5t-70.5 -162.5t70 -162t176 -65zM768 971q147 0 244.5 -87.5t97.5 -224.5t-97 -224t-245 -87t-246 87t-98 224t98 224.5t246 87.5zM829 1419v-225h377v-94h-874v94h387v225h110zM1468 901h261v-94
h-261v-752h-110v1465h110v-619zM1024 -111q242 0 446.5 119t323.5 323.5t119 446.5t-119 446.5t-323.5 323.5t-446.5 119t-446.5 -119t-323.5 -323.5t-119 -446.5t119 -446.5t323.5 -323.5t446.5 -119zM1024 1724q192 0 367.5 -75t302 -201.5t201.5 -302t75 -367.5
t-75 -367.5t-201.5 -302t-302 -201.5t-367.5 -75t-367.5 75t-302 201.5t-201.5 302t-75 367.5t75 367.5t201.5 302t302 201.5t367.5 75z" />
    <glyph glyph-name="uniE635" unicode="&#xe635;" 
d="M909 1460q0 50 32.5 82.5t82.5 32.5t82.5 -32.5t32.5 -82.5q0 -49 -32.5 -81.5t-82.5 -32.5t-82.5 32.5t-32.5 81.5zM909 778q0 50 32.5 82.5t82.5 32.5t82.5 -32.5t32.5 -82.5q0 -49 -32.5 -81.5t-82.5 -32.5t-82.5 32.5t-32.5 81.5zM909 96q0 50 32.5 82.5t82.5 32.5
t82.5 -32.5t32.5 -82.5q0 -49 -32.5 -81.5t-82.5 -32.5t-82.5 32.5t-32.5 81.5z" />
    <glyph glyph-name="uniE637" unicode="&#xe637;" 
d="M1063 1657v-1757h-78v1757h78z" />
    <glyph glyph-name="uniF634" unicode="&#xf634;" horiz-adv-x="4096" 
d="M145 817h3806v-78h-3806v78z" />
    <glyph glyph-name="uniF635" unicode="&#xf635;" horiz-adv-x="6144" 
d="M145 817h5854v-78h-5854v78z" />
  </font>
</defs>
</svg>
