<svg width="117" height="145" viewBox="0 0 117 145" fill="none" xmlns="http://www.w3.org/2000/svg">
<path d="M103.053 144.925H97.0348V100.932C97.0348 100.135 97.3507 99.3676 97.9074 98.8109C106.318 90.3705 110.967 79.1617 110.967 67.2458C110.967 42.6165 90.9264 22.561 66.2821 22.561C41.6377 22.561 21.6124 42.6165 21.6124 67.2458C21.6124 67.9228 21.6424 68.5998 21.6725 69.2769C21.7026 69.8486 21.5522 70.4203 21.2663 70.9168L8.44765 93.1087H14.3153C15.9703 93.1087 17.3244 94.4628 17.3244 96.1178V114.94C17.3244 120.371 21.7478 124.794 27.1641 124.794H47.5355C49.1905 124.794 50.5446 126.148 50.5446 127.803V144.925H44.5265V130.812H27.1641C18.4227 130.812 11.3063 123.696 11.3063 114.94V99.1269H3.24195C2.17373 99.1269 1.16569 98.5552 0.639105 97.6223C0.0974713 96.6895 0.0974713 95.5461 0.639105 94.6133L15.6243 68.66C15.6092 68.1936 15.5942 67.7272 15.5942 67.2608C15.5942 39.3065 38.3428 16.5579 66.2971 16.5579C94.2514 16.5579 117 39.3065 117 67.2608C117 80.3653 112.065 92.7025 103.068 102.166V144.94L103.053 144.925Z" fill="#282D33"/>
<path d="M66.643 94.6886C83.2616 94.6886 96.7337 81.2165 96.7337 64.5979C96.7337 47.9792 83.2616 34.5071 66.643 34.5071C50.0243 34.5071 36.5522 47.9792 36.5522 64.5979C36.5522 81.2165 50.0243 94.6886 66.643 94.6886Z" fill="#5EB4E7"/>
<path d="M66.643 78.1386C74.1214 78.1386 80.1838 72.0762 80.1838 64.5978C80.1838 57.1194 74.1214 51.057 66.643 51.057C59.1646 51.057 53.1022 57.1194 53.1022 64.5978C53.1022 72.0762 59.1646 78.1386 66.643 78.1386Z" fill="white"/>
<path d="M66.1166 61.2728L19.9122 19.3413H66.1166H112.351L66.1166 61.2728Z" fill="white"/>
<path d="M66.1165 64.2819C65.3943 64.2819 64.6721 64.0261 64.1004 63.4995L17.881 21.5681C16.9633 20.7256 16.6473 19.4166 17.0987 18.2581C17.55 17.0996 18.6634 16.3323 19.9122 16.3323H112.351C113.6 16.3323 114.713 17.0996 115.164 18.2581C115.616 19.4166 115.3 20.7406 114.382 21.5681L68.1627 63.4995C67.5909 64.0261 66.8688 64.2819 66.1466 64.2819H66.1165ZM27.7057 22.3505L66.1315 57.2106L104.557 22.3505H27.7057Z" fill="#282D33"/>
<path d="M66.1166 61.2727L45.7452 19.3413H66.1166H86.5031L66.1166 61.2727Z" fill="white"/>
<path d="M66.1165 64.2818C64.958 64.2818 63.9199 63.6198 63.4083 62.5817L43.0519 20.6653C42.6006 19.7325 42.6608 18.6342 43.2024 17.7465C43.744 16.8588 44.722 16.3322 45.7601 16.3322H86.518C87.5561 16.3322 88.519 16.8588 89.0757 17.7465C89.6324 18.6191 89.6775 19.7325 89.2262 20.6653L68.8548 62.5968C68.3583 63.6349 67.3051 64.2969 66.1466 64.2969L66.1165 64.2818ZM50.5445 22.3504L66.1165 54.382L81.6885 22.3504H50.5596H50.5445Z" fill="#282D33"/>
<path d="M19.9122 19.4617H66.1165H112.351L99.6376 3.07733H32.6255L19.9122 19.4617Z" fill="white"/>
<path d="M112.351 22.4708H19.9125C18.769 22.4708 17.7158 21.8238 17.2043 20.7857C16.6927 19.7476 16.8282 18.5289 17.5353 17.6111L30.2486 1.22673C30.8204 0.489508 31.693 0.0682373 32.6258 0.0682373H99.6379C100.571 0.0682373 101.443 0.504553 102.015 1.22673L114.728 17.6111C115.436 18.5139 115.556 19.7476 115.059 20.7857C114.548 21.8238 113.51 22.4708 112.351 22.4708ZM26.051 16.4526H106.198L98.1484 6.08639H34.1002L26.051 16.4526Z" fill="#282D33"/>
<path d="M66.1165 2.9118L45.745 19.4617H66.1165H86.5029L66.1165 2.9118Z" fill="white"/>
<path d="M86.5029 22.4708H45.745L43.8493 17.1297L64.2207 0.579773H68.0121L88.3836 17.1297L86.4878 22.4708H86.5029ZM54.2306 16.4526H78.0323L66.1315 6.77847L54.2306 16.4526Z" fill="#282D33"/>
<path d="M45.5798 19.4618L32.6558 3.07736H32.6257L19.9124 19.4618H45.5798Z" fill="white"/>
<path d="M45.5795 22.4707H19.9121C18.7687 22.4707 17.7155 21.8238 17.204 20.7857C16.6924 19.7475 16.8278 18.5289 17.535 17.6111L30.2483 1.22668C31.3767 -0.232726 33.8742 -0.247771 35.0177 1.21163L47.9416 17.596C48.6488 18.4988 48.7842 19.7325 48.2877 20.7706C47.7912 21.8087 46.738 22.4707 45.5795 22.4707ZM26.0506 16.4526H39.3808L32.6556 7.93691L26.0506 16.4526Z" fill="#282D33"/>
<path d="M86.6684 19.4618L99.5923 3.07736H99.6375L112.351 19.4618H86.6684Z" fill="white"/>
<path d="M112.351 22.4707H86.6836C85.5251 22.4707 84.4719 21.8087 83.9754 20.7706C83.4789 19.7325 83.5993 18.4988 84.3214 17.596L97.2304 1.21163C98.3738 -0.247771 100.871 -0.232726 102 1.22668L114.713 17.6111C115.42 18.5138 115.541 19.7475 115.044 20.7857C114.533 21.8238 113.494 22.4707 112.336 22.4707H112.351ZM92.8822 16.4526H106.212L99.6075 7.93691L92.8973 16.4526H92.8822Z" fill="#282D33"/>
</svg>
