<svg width="117" height="124" viewBox="0 0 117 124" fill="none" xmlns="http://www.w3.org/2000/svg">
<path d="M45.8376 106.519C45.648 108.865 46.0627 114.078 45.5532 116.625C45.0912 118.959 44.7713 119.03 43.5273 119.717C42.8283 120.096 41.6555 120.629 40.6603 121.056" fill="white"/>
<path d="M41.608 123.236L39.7243 118.888C40.8972 118.378 41.8687 117.928 42.39 117.644L42.5558 117.561C42.7098 117.478 42.8283 117.419 42.9349 117.348C42.9823 117.217 43.0889 116.898 43.2311 116.175C43.4918 114.872 43.4562 112.336 43.4325 110.31C43.4088 108.794 43.397 107.372 43.4799 106.342L48.207 106.733C48.1359 107.538 48.1596 108.853 48.1714 110.251C48.207 112.739 48.2425 115.31 47.8871 117.099C47.3303 119.93 46.6313 120.736 44.8542 121.719L44.7002 121.802C43.8116 122.288 42.39 122.916 41.6199 123.248L41.608 123.236Z" fill="#282D33"/>
<path d="M75.7636 121.08C74.7684 120.642 73.5718 120.108 72.861 119.717C71.6289 119.03 71.3801 118.947 70.918 116.625C70.4086 114.078 70.8232 108.996 70.6337 106.65" fill="white"/>
<path d="M74.8158 123.248C73.8562 122.833 72.5411 122.241 71.7236 121.791L71.617 121.731C69.6859 120.653 69.1409 119.824 68.596 117.075C68.2405 115.286 68.2761 112.751 68.3116 110.299C68.3353 108.924 68.3472 107.633 68.2879 106.827L73.015 106.448C73.0979 107.479 73.0861 108.877 73.0624 110.37C73.0387 112.372 73.0032 114.848 73.2638 116.163C73.406 116.898 73.5007 117.229 73.56 117.383C73.6666 117.454 73.7851 117.514 73.9391 117.597C74.5315 117.928 75.5029 118.379 76.7232 118.912L74.8276 123.26L74.8158 123.248Z" fill="#282D33"/>
<path d="M78.9626 118.509H37.6036V123.248H78.9626V118.509Z" fill="#282D33"/>
<path d="M2.38093 93.1913V102.622C2.38093 104.434 4.22911 106.448 6.04175 106.448H111.282C113.094 106.448 114.172 104.588 114.172 102.788V93.2031H2.38093V93.1913Z" fill="white"/>
<path d="M111.282 108.818H6.03016C2.93801 108.818 -0.0001297 105.809 -0.0001297 102.622V90.8218H116.542V102.776C116.542 105.738 114.575 108.806 111.282 108.806V108.818ZM4.75065 95.5607V102.622C4.75065 103.19 5.60366 104.079 6.04201 104.079H111.282C111.436 104.079 111.803 103.522 111.803 102.788V95.5725H4.75065V95.5607Z" fill="#282D33"/>
<path d="M16.4201 24.8204H5.42577C3.74345 24.8204 2.36916 26.1947 2.36916 27.877V93.2624H114.137V27.877C114.137 26.1947 112.763 24.8204 111.08 24.8204H100.133" fill="white"/>
<path d="M116.506 95.6317H-0.0001297V27.8768C-0.0001297 24.8794 2.44042 22.4507 5.42595 22.4507H16.4203V27.1896H5.42595C5.04683 27.1896 4.7388 27.4977 4.7388 27.8768V90.8927H111.768V27.8768C111.768 27.4977 111.46 27.1896 111.08 27.1896H100.133V22.4507H111.08C114.078 22.4507 116.506 24.8913 116.506 27.8768V95.6317Z" fill="#282D33"/>
<path d="M25.0096 33.694H11.1127V84.3057H25.0096V33.694Z" fill="#5EB4E7"/>
<path d="M105.275 33.694H91.5323V84.3057H105.275V33.694Z" fill="#5EB4E7"/>
<path d="M95.3114 22.8419H90.5725V84.3058H95.3114V22.8419Z" fill="#282D33"/>
<path d="M26.1114 84.3057H21.3725V9.15527e-05H73.6547V4.73902H26.1114V84.3057Z" fill="#282D33"/>
<path d="M76.9126 18.4109H95.1693L76.9126 0.142365V18.4109Z" fill="#F8C44F"/>
<path d="M61.3097 22.4627H35.3523V27.2017H61.3097V22.4627Z" fill="#282D33"/>
<path d="M79.839 32.782H35.3523V37.5209H79.839V32.782Z" fill="#282D33"/>
<path d="M79.839 43.1009H35.3523V47.8399H79.839V43.1009Z" fill="#282D33"/>
<path d="M79.839 53.4197H35.3523V58.1586H79.839V53.4197Z" fill="#282D33"/>
<path d="M79.839 63.7509H35.3523V68.4898H79.839V63.7509Z" fill="#282D33"/>
<path d="M79.839 74.0698H35.3523V78.8088H79.839V74.0698Z" fill="#282D33"/>
</svg>
