<svg width="117" height="114" viewBox="0 0 117 114" fill="none" xmlns="http://www.w3.org/2000/svg">
<path d="M3.82023 71.7919H91.5292C92.3309 71.7919 92.9912 72.4522 92.9912 73.254V109.344C92.9912 110.146 92.3427 110.806 91.5292 110.806H3.82023C3.01848 110.806 2.35822 110.146 2.35822 109.344V73.254C2.35822 72.4522 3.01848 71.7919 3.82023 71.7919Z" fill="white"/>
<path d="M91.5291 113.165H3.8201C1.70961 113.165 0 111.455 0 109.344V73.2539C0 71.1435 1.70961 69.4338 3.8201 69.4338H91.5291C93.6395 69.4338 95.3492 71.1435 95.3492 73.2539V109.344C95.3492 111.455 93.6395 113.165 91.5291 113.165ZM4.71617 108.448H90.633V74.15H4.71617V108.448Z" fill="#282D33"/>
<path d="M16.613 79.385H9.73914V84.1012H16.613V79.385Z" fill="#5EB4E7"/>
<path d="M28.1086 79.3851H21.2348V84.1013H28.1086V79.3851Z" fill="#5EB4E7"/>
<path d="M39.6162 79.3851H32.7424V84.1013H39.6162V79.3851Z" fill="#5EB4E7"/>
<path d="M51.1117 79.3851H44.2379V84.1013H51.1117V79.3851Z" fill="#5EB4E7"/>
<path d="M62.6075 79.3851H55.7337V84.1013H62.6075V79.3851Z" fill="#5EB4E7"/>
<path d="M74.1147 79.3851H67.2409V84.1013H74.1147V79.3851Z" fill="#5EB4E7"/>
<path d="M85.6106 79.3851H78.7368V84.1013H85.6106V79.3851Z" fill="#5EB4E7"/>
<path d="M16.6131 88.9473H9.73932V93.6634H16.6131V88.9473Z" fill="#5EB4E7"/>
<path d="M28.1088 88.9472H21.235V93.6634H28.1088V88.9472Z" fill="#5EB4E7"/>
<path d="M39.6163 88.9472H32.7425V93.6634H39.6163V88.9472Z" fill="#5EB4E7"/>
<path d="M51.1118 88.9472H44.238V93.6634H51.1118V88.9472Z" fill="#5EB4E7"/>
<path d="M62.6077 88.9472H55.7339V93.6634H62.6077V88.9472Z" fill="#5EB4E7"/>
<path d="M74.1149 88.9472H67.2411V93.6634H74.1149V88.9472Z" fill="#5EB4E7"/>
<path d="M85.6108 88.9472H78.7369V93.6634H85.6108V88.9472Z" fill="#5EB4E7"/>
<path d="M16.6131 98.4975H9.73932V103.214H16.6131V98.4975Z" fill="#5EB4E7"/>
<path d="M28.1088 98.4975H21.235V103.214H28.1088V98.4975Z" fill="#5EB4E7"/>
<path d="M74.2212 98.4975H32.7425V103.214H74.2212V98.4975Z" fill="#5EB4E7"/>
<path d="M85.6108 98.4975H78.7369V103.214H85.6108V98.4975Z" fill="#5EB4E7"/>
<path d="M46.0536 20.1027H43.6956V24.8188H46.0536V20.1027Z" fill="#282D33"/>
<path d="M49.956 59.8364H45.1809V55.1202H49.956V59.8364ZM40.4058 59.8364H35.6307V55.1202H40.4058V59.8364ZM30.8556 59.8364H26.0804V55.1202H30.8556V59.8364ZM21.2346 59.8364C19.4189 59.7892 17.6267 59.4827 15.9053 58.9521L17.3084 54.4482C18.6171 54.8608 19.9848 55.0848 21.3761 55.1202L21.2464 59.8364H21.2346ZM11.0241 56.6648C9.5031 55.6862 8.13541 54.4953 6.93279 53.1394L10.4699 50.015C11.3896 51.0525 12.4389 51.9486 13.5944 52.7032L11.0359 56.6648H11.0241ZM3.93802 48.6591C3.14806 47.032 2.58212 45.2988 2.26378 43.5184L6.90921 42.6813C7.15681 44.0372 7.58126 45.3577 8.18258 46.5957L3.93802 48.6591ZM6.73235 38.5665L2.03976 38.1302C2.20483 36.3263 2.6175 34.5577 3.26597 32.8717L7.6638 34.5577C7.1686 35.8429 6.86205 37.187 6.73235 38.5665ZM9.65638 30.9616L5.87165 28.1437C6.94458 26.6935 8.21795 25.3966 9.64459 24.2883L12.5332 28.014C11.4485 28.8629 10.4699 29.8533 9.64459 30.9616H9.65638ZM16.1057 25.9625L14.3254 21.6C15.9996 20.9162 17.7564 20.4682 19.5603 20.2677L20.0909 24.9485C18.7232 25.1018 17.3791 25.4437 16.1057 25.9625ZM38.9202 24.8424H34.1451V20.1262H38.9202V24.8424ZM29.37 24.8424H24.5948V20.1262H29.37V24.8424Z" fill="#282D33"/>
<path d="M57.1248 55.1201H54.7668V59.8363H57.1248V55.1201Z" fill="#282D33"/>
<path d="M49.0953 55.1203H46.7372V59.8365H49.0953V55.1203Z" fill="#282D33"/>
<path d="M102.742 83.4172H99.7827V78.7011H102.742C103.202 78.7011 103.674 78.6657 104.122 78.6067L104.805 83.2758C104.122 83.3701 103.438 83.429 102.742 83.429V83.4172ZM110.064 81.3775L107.623 77.3452C108.696 76.6967 109.628 75.8478 110.371 74.822L114.179 77.6046C113.059 79.1255 111.679 80.3989 110.064 81.3775ZM116.513 72.5347L111.927 71.45C112.092 70.7425 112.174 69.9997 112.174 69.2687C112.174 68.75 112.127 68.2312 112.045 67.7242L116.702 66.9578C116.832 67.7124 116.891 68.4906 116.891 69.2569C116.891 70.3652 116.761 71.4617 116.513 72.5229V72.5347ZM110.736 64.246C110.064 63.1849 109.203 62.2652 108.166 61.546L110.877 57.6905C112.422 58.7753 113.707 60.1429 114.721 61.7347L110.724 64.246H110.736ZM104.77 60.0486C104.11 59.9071 103.426 59.8364 102.742 59.8364H100.608V55.1202H102.742C103.756 55.1202 104.782 55.2263 105.772 55.4504L104.77 60.0604V60.0486ZM95.9272 59.8364H91.2464V55.1202H95.9272V59.8364ZM86.5656 59.8364H81.8848V55.1202H86.5656V59.8364ZM77.204 59.8364H72.5232V55.1202H77.204V59.8364ZM67.8424 59.8364H63.1616V55.1202H67.8424V59.8364ZM58.4808 59.8364H53.8V55.1202H58.4808V59.8364Z" fill="#282D33"/>
<path d="M95.078 78.7012H92.72V83.4173H95.078V78.7012Z" fill="#282D33"/>
<path d="M35.4301 40.1936C35.4301 47.4094 29.582 53.2456 22.3663 53.2456C15.1505 53.2456 9.31427 47.3976 9.31427 40.1936C9.31427 32.9897 15.1623 27.1416 22.3663 27.1416C29.5702 27.1416 35.4301 32.9897 35.4301 40.1936Z" fill="#5EB4E7"/>
<path d="M26.6699 37.6114C26.6699 39.9812 24.7481 41.9031 22.3782 41.9031C20.0084 41.9031 18.0865 39.9812 18.0865 37.6114C18.0865 35.2415 20.0084 33.3197 22.3782 33.3197C24.7481 33.3197 26.6699 35.2415 26.6699 37.6114Z" fill="white"/>
<path d="M25.5971 43.5301H19.1595C16.7896 43.5301 14.8678 45.452 14.8678 47.8219V48.1756C16.8368 50.0267 19.466 51.1585 22.3783 51.1585C25.2905 51.1585 27.9198 50.0149 29.8888 48.1756V47.8219C29.8888 45.452 27.9669 43.5301 25.5971 43.5301Z" fill="white"/>
<path d="M116.195 56.4054C116.195 63.6211 110.347 69.4574 103.131 69.4574C95.9151 69.4574 90.0789 63.6093 90.0789 56.4054C90.0789 49.2014 95.9269 43.3534 103.131 43.3534C110.335 43.3534 116.195 49.2014 116.195 56.4054Z" fill="#5EB4E7"/>
<path d="M107.434 53.8232C107.434 56.1931 105.513 58.1149 103.143 58.1149C100.773 58.1149 98.851 56.1931 98.851 53.8232C98.851 51.4533 100.773 49.5315 103.143 49.5315C105.513 49.5315 107.434 51.4533 107.434 53.8232Z" fill="white"/>
<path d="M106.362 59.7422H99.924C97.5541 59.7422 95.6322 61.664 95.6322 64.0339V64.3876C97.6012 66.2387 100.231 67.3706 103.143 67.3706C106.055 67.3706 108.684 66.2269 110.653 64.3876V64.0339C110.653 61.664 108.731 59.7422 106.362 59.7422Z" fill="white"/>
<path d="M67.4294 48.5058C54.0591 48.5058 43.1765 37.6232 43.1765 24.2529C43.1765 10.8826 54.0591 0 67.4294 0C80.7998 0 91.6824 10.8826 91.6824 24.2529C91.6824 37.6232 80.7998 48.5058 67.4294 48.5058ZM67.4294 4.71617C56.653 4.71617 47.8927 13.4765 47.8927 24.2529C47.8927 35.0294 56.653 43.7896 67.4294 43.7896C78.2059 43.7896 86.9662 35.0294 86.9662 24.2529C86.9662 13.4765 78.1941 4.71617 67.4294 4.71617Z" fill="#282D33"/>
<path d="M55.2854 32.6949C53.564 30.2425 52.6326 27.3302 52.6326 24.2529C52.6326 16.094 59.2706 9.45596 67.4296 9.45596C75.5885 9.45596 82.2265 16.094 82.2265 24.2529C82.2265 27.3185 81.2951 30.2307 79.5737 32.6949C78.4182 29.7709 75.5532 27.6957 72.2165 27.6957H62.6426C59.306 27.6957 56.4527 29.7709 55.2854 32.6949Z" fill="#F8C44F"/>
<path d="M73.8079 22.1189C73.8079 25.6442 70.9546 28.4975 67.4175 28.4975C63.8804 28.4975 61.0271 25.6442 61.0271 22.1189C61.0271 18.5935 63.8804 15.7403 67.4175 15.7403C70.9546 15.7403 73.8079 18.5935 73.8079 22.1189Z" fill="white"/>
<path d="M67.4294 30.8673C62.6071 30.8673 58.6809 26.9411 58.6809 22.1306C58.6809 17.3201 62.6071 13.3939 67.4294 13.3939C72.2517 13.3939 76.1779 17.3201 76.1779 22.1306C76.1779 26.9411 72.2517 30.8673 67.4294 30.8673ZM67.4294 18.0983C65.2128 18.0983 63.397 19.9022 63.397 22.1188C63.397 24.3354 65.201 26.1393 67.4294 26.1393C69.6578 26.1393 71.4617 24.3354 71.4617 22.1188C71.4617 19.9022 69.6578 18.0983 67.4294 18.0983Z" fill="#282D33"/>
<path d="M80.965 42.9642H76.2488V35.5952C76.2488 33.3786 74.4449 31.5629 72.2165 31.5629H62.6427C60.4261 31.5629 58.6103 33.3668 58.6103 35.5952V42.9642H53.8942V35.5952C53.8942 30.7729 57.8204 26.8467 62.6427 26.8467H72.2165C77.0388 26.8467 80.965 30.7729 80.965 35.5952V42.9642Z" fill="#282D33"/>
</svg>
