<svg width="118" height="128" viewBox="0 0 118 128" fill="none" xmlns="http://www.w3.org/2000/svg">
<path d="M107.14 72.9269H96.2908V68.2558H105.353C105.563 68.2558 105.738 68.2558 105.867 68.2558H106.17C110.117 68.2558 113.329 65.0443 113.329 61.0972C113.329 57.1501 110.281 54.0788 106.392 53.962L103.846 53.8919L104.138 51.3695C104.232 50.5637 104.278 49.8397 104.278 49.1858C104.278 39.0377 96.0222 30.7931 85.8858 30.7931C84.2392 30.7931 82.5693 31.0266 80.911 31.4938L78.3302 32.2178L77.9682 29.5669C76.0764 15.752 64.1182 5.33528 50.1631 5.33528C34.6783 5.33528 22.0778 17.9357 22.0778 33.4089V35.6978L20.0108 35.9314C11.8246 36.8656 5.64704 43.7906 5.64704 52.0468C5.64704 60.9921 12.9224 68.2791 21.8676 68.2791V72.9503C10.3532 72.9269 0.97588 63.5496 0.97588 52.0235C0.97588 42.0856 7.92422 33.6425 17.4534 31.5989C18.3876 14.374 32.7047 0.640774 50.1631 0.640774C65.6013 0.640774 78.9258 11.5596 82.1606 26.4139C83.4101 26.2037 84.648 26.0986 85.8858 26.0986C98.603 26.0986 108.95 36.4452 108.95 49.1624C108.95 49.3025 108.95 49.4543 108.95 49.5945C114.181 50.8323 118 55.4918 118 61.0855C118 67.2748 113.224 72.378 107.151 72.8685V72.9035L107.14 72.9269Z" fill="#282D33"/>
<path d="M45.6901 42.7043H37.0601C32.0152 42.7043 27.9163 46.7449 27.8112 51.7663V52.9341V111.242L27.8346 108.906C27.8346 108.731 27.8112 110.892 27.8112 110.716C27.8112 105.601 31.9569 101.456 37.0718 101.456H90.685V42.7043H58.9445" fill="white"/>
<path d="M27.7996 113.075H25.4757V51.7548C25.6041 45.4604 30.8008 40.3689 37.0601 40.3689H45.6901V45.04H37.0601C33.3232 45.04 30.2286 48.0763 30.1468 51.8132V52.9576V101.433C32.0737 99.9845 34.4793 99.132 37.0718 99.132H88.3494V45.04H58.9445V40.3689H93.0206V103.803H37.0601C33.3699 103.803 30.3453 106.699 30.1468 110.343V111.265H30.0417C29.6213 113.029 27.9047 113.064 27.7879 113.064L27.7996 113.075Z" fill="#282D33"/>
<path d="M84.3441 49.0338H42.0001V95.1498H84.3441V49.0338Z" fill="#F8C44F"/>
<path d="M90.6735 101.479H37.0603C31.9454 101.479 27.7997 105.625 27.7997 110.74C27.7997 115.855 31.9454 120 37.0603 120H90.6735V101.491V101.479Z" fill="white"/>
<path d="M93.0092 122.324H37.0604C30.6726 122.324 25.4643 117.128 25.4643 110.728C25.4643 104.329 30.6609 99.1319 37.0604 99.1319H93.0092V122.313V122.324ZM37.0604 103.815C33.2417 103.815 30.1354 106.921 30.1354 110.74C30.1354 114.558 33.2417 117.665 37.0604 117.665H88.338V103.826H37.0604V103.815Z" fill="#282D33"/>
<path d="M55.091 127.416L48.3762 123.165L41.6614 127.416V111.534H48.3762H55.091V127.416Z" fill="#5EB4E7"/>
<path d="M90.6736 108.93H36.3714V113.601H90.6736V108.93Z" fill="#282D33"/>
<path d="M38.707 43.6037H34.0359V100.907H38.707V43.6037Z" fill="#282D33"/>
<path d="M60.7315 32.2761L52.3585 23.9148L43.9971 32.2761L40.6923 28.9713L52.3585 17.3167L64.0364 28.9713L60.7315 32.2761Z" fill="#282D33"/>
<path d="M54.9625 23.7629H50.2914V54.6626H54.9625V23.7629Z" fill="#282D33"/>
<path d="M65.613 86.4851L53.9351 74.8306L57.24 71.5257L65.613 79.8871L73.9861 71.5257L77.2792 74.8306L65.613 86.4851Z" fill="#282D33"/>
<path d="M67.6801 49.1275H63.0089V80.0272H67.6801V49.1275Z" fill="#282D33"/>
</svg>
